<svg width="184" height="171" viewBox="0 0 184 171" fill="none" xmlns="http://www.w3.org/2000/svg">
<circle cx="92.5" cy="85" r="57" fill="#23A26D" fill-opacity="0.12"/>
<path d="M93.2917 58.6111C78.7514 58.6111 66.9028 70.4597 66.9028 85C66.9028 99.5402 78.7514 111.389 93.2917 111.389C107.832 111.389 119.681 99.5402 119.681 85C119.681 70.4597 107.832 58.6111 93.2917 58.6111ZM105.906 78.9305L90.9431 93.893C90.5737 94.2625 90.0723 94.4736 89.5445 94.4736C89.0167 94.4736 88.5153 94.2625 88.1459 93.893L80.6778 86.425C79.9126 85.6597 79.9126 84.393 80.6778 83.6277C81.4431 82.8625 82.7098 82.8625 83.4751 83.6277L89.5445 89.6972L103.108 76.1333C103.874 75.368 105.14 75.368 105.906 76.1333C106.671 76.8986 106.671 78.1389 105.906 78.9305Z" fill="#2C9A42"/>
<path d="M18 25.6231L22.8616 39.4914L36 44.6231L22.8616 49.7548L18 63.6231L13.1384 49.7548L0 44.6231L13.1384 39.4914L18 25.6231Z" fill="#2C9A42" fill-opacity="0.16"/>
<path d="M44.5 9.62311L46.7958 16.1923L53 18.6231L46.7958 21.0539L44.5 27.6231L42.2042 21.0539L36 18.6231L42.2042 16.1923L44.5 9.62311Z" fill="#2C9A42"/>
<path d="M164.78 23.804L150.316 26.4025L143.163 38.5596L140.182 24.7732L127.262 17.7717L141.726 15.1733L148.878 3.01614L151.859 16.8025L164.78 23.804Z" fill="#2C9A42" fill-opacity="0.16"/>
<path d="M176.37 52.5079L169.52 53.7317L166.135 59.4714L164.72 52.96L158.599 49.6505L165.449 48.4266L168.834 42.687L170.249 49.1984L176.37 52.5079Z" fill="#2C9A42"/>
<path d="M155.993 153.04L154.991 138.378L143.688 129.94L157.718 128.484L166.089 116.406L167.092 131.067L178.394 139.505L164.365 140.962L155.993 153.04Z" fill="#2C9A42" fill-opacity="0.16"/>
<path d="M126.195 161.424L125.727 154.481L120.391 150.489L127.018 149.794L130.977 144.071L131.445 151.014L136.78 155.006L130.153 155.701L126.195 161.424Z" fill="#2C9A42"/>
<path d="M23.225 148.98L37.4911 145.452L43.8428 132.858L47.7085 146.423L61.0546 152.575L46.7885 156.103L40.4367 168.697L36.5711 155.132L23.225 148.98Z" fill="#2C9A42" fill-opacity="0.16"/>
<path d="M9.80422 121.085L16.5611 119.421L19.5681 113.475L21.401 119.881L27.7235 122.788L20.9665 124.452L17.9596 130.398L16.1267 123.992L9.80422 121.085Z" fill="#2C9A42"/>
</svg>
