<svg width="30" height="31" viewBox="0 0 30 31" fill="none" xmlns="http://www.w3.org/2000/svg">
<path d="M19.9625 17.6993C18.8441 18.3518 17.9172 19.2874 17.275 20.4118L14.4375 14.9493L9.575 19.7868L10 22.9118L8.6875 24.2368L6.475 20.2493L2.5 18.0493L3.825 16.7243L6.925 17.1618L11.7875 12.2868L2.5 7.43678L4.2625 5.67428L15.7625 8.32428L20.625 3.46178C20.7982 3.28642 21.0046 3.14719 21.232 3.05216C21.4595 2.95713 21.7035 2.9082 21.95 2.9082C22.1965 2.9082 22.4405 2.95713 22.668 3.05216C22.8954 3.14719 23.1018 3.28642 23.275 3.46178C24 4.19928 24 5.41178 23.275 6.11178L18.4125 10.9743L19.9625 17.6993ZM26.675 20.2118L22.1875 24.6993L20.2 22.7118L18.75 24.1618L22.1875 27.9118L28.125 21.9743L26.675 20.2118Z" fill="#2C9A42"/>
</svg>
