<svg width="18" height="18" viewBox="0 0 18 18" fill="none" xmlns="http://www.w3.org/2000/svg">
<path fill-rule="evenodd" clip-rule="evenodd" d="M4 2.04673C3.46 2.069 3.072 2.11839 2.729 2.23072C2.14238 2.42093 1.60932 2.74031 1.17171 3.16375C0.734106 3.58719 0.403882 4.10316 0.207 4.67108C1.49012e-08 5.27245 0 6.01425 0 7.49977C0 7.59176 1.11759e-08 7.63825 0.013 7.67505C0.0252768 7.71067 0.0459435 7.74304 0.0733657 7.76959C0.100788 7.79615 0.134214 7.81616 0.171 7.82805C0.209 7.84064 0.257 7.84064 0.353 7.84064H17.647C17.743 7.84064 17.791 7.84064 17.829 7.82805C17.8658 7.81616 17.8992 7.79615 17.9266 7.76959C17.9541 7.74304 17.9747 7.71067 17.987 7.67505C18 7.63728 18 7.5908 18 7.49783C18 6.01328 18 5.27052 17.793 4.67205C17.5964 4.10377 17.2663 3.58742 16.8287 3.16362C16.391 2.73983 15.8578 2.42016 15.271 2.22975C14.928 2.11839 14.539 2.069 14 2.04673V4.45029C14 4.83554 13.842 5.20501 13.5607 5.47743C13.2794 5.74984 12.8978 5.90288 12.5 5.90288C12.1022 5.90288 11.7206 5.74984 11.4393 5.47743C11.158 5.20501 11 4.83554 11 4.45029V2.0293H7V4.45029C7 4.83554 6.84196 5.20501 6.56066 5.47743C6.27936 5.74984 5.89782 5.90288 5.5 5.90288C5.10218 5.90288 4.72064 5.74984 4.43934 5.47743C4.15804 5.20501 4 4.83554 4 4.45029V2.04673Z" fill="#333333"/>
<path d="M0 9.2923C0 9.06376 -4.47035e-08 8.94949 0.073 8.8788C0.146 8.80811 0.264 8.80811 0.5 8.80811H17.5C17.736 8.80811 17.854 8.80811 17.927 8.8788C18 8.94949 18 9.06376 18 9.2923V9.7765C18 13.4283 18 15.2547 16.828 16.3887C15.657 17.5237 13.771 17.5237 10 17.5237H8C4.229 17.5237 2.343 17.5237 1.172 16.3887C-1.19209e-07 15.2547 0 13.4283 0 9.7765V9.2923Z" fill="#333333" fill-opacity="0.25"/>
<path d="M5.5 0.57666V4.45024M12.5 0.57666V4.45024" stroke="#333333" stroke-linecap="round"/>
</svg>
