<svg width="20" height="20" viewBox="0 0 20 20" fill="none" xmlns="http://www.w3.org/2000/svg">
<path d="M13.833 1.9094e-05H7.676C6.15497 0.00123316 4.69348 0.591312 3.59801 1.64652C2.50253 2.70173 1.85815 4.1401 1.8 5.66002H1C0.801088 5.66002 0.610322 5.73904 0.46967 5.87969C0.329018 6.02034 0.25 6.21111 0.25 6.41002C0.25 6.60893 0.329018 6.7997 0.46967 6.94035C0.610322 7.081 0.801088 7.16002 1 7.16002H1.79V12.85H1.03C0.831088 12.85 0.640322 12.929 0.49967 13.0697C0.359018 13.2103 0.28 13.4011 0.28 13.6C0.28 13.7989 0.359018 13.9897 0.49967 14.1304C0.640322 14.271 0.831088 14.35 1.03 14.35H1.83C1.88969 15.8685 2.53487 17.3049 3.63029 18.3582C4.72571 19.4115 6.18634 19.9999 7.706 20H13.863C14.6364 20.0002 15.4022 19.8479 16.1167 19.5519C16.8312 19.2559 17.4804 18.822 18.0271 18.275C18.5738 17.728 19.0074 17.0786 19.303 16.364C19.5986 15.6493 19.7505 14.8834 19.75 14.11V5.89002C19.7484 5.1147 19.5941 4.3473 19.2959 3.63164C18.9976 2.91598 18.5613 2.2661 18.0118 1.71912C17.4623 1.17215 16.8104 0.738794 16.0934 0.443824C15.3764 0.148854 14.6083 -0.00195298 13.833 1.9094e-05ZM11.154 3.93002C11.6127 3.92974 12.0657 4.03135 12.4803 4.22751C12.8949 4.42366 13.2608 4.70946 13.5515 5.06426C13.8422 5.41906 14.0504 5.834 14.1612 6.27911C14.272 6.72421 14.2825 7.18836 14.192 7.63802C14.1019 8.08745 13.9133 8.5113 13.6397 8.87906C13.3661 9.24682 13.0143 9.54934 12.6098 9.76481C12.2052 9.98029 11.7579 10.1034 11.3001 10.1252C10.8422 10.147 10.3852 10.067 9.962 9.89102C9.49146 9.69505 9.07653 9.38605 8.75396 8.99139C8.43139 8.59674 8.21115 8.12861 8.11275 7.62849C8.01435 7.12836 8.04082 6.61169 8.18983 6.12425C8.33884 5.6368 8.60578 5.19364 8.967 4.83402C9.54759 4.25506 10.3341 3.92997 11.154 3.93002ZM14.653 15.5C14.4541 15.5 14.2633 15.421 14.1227 15.2803C13.982 15.1397 13.903 14.9489 13.903 14.75C13.903 13.54 12.393 12.5 11.154 12.5C9.915 12.5 8.416 13.5 8.416 14.75C8.416 14.9489 8.33698 15.1397 8.19633 15.2803C8.05568 15.421 7.86491 15.5 7.666 15.5C7.46709 15.5 7.27632 15.421 7.13567 15.2803C6.99502 15.1397 6.916 14.9489 6.916 14.75C6.916 12.6 9.156 11 11.154 11C13.154 11 15.402 12.6 15.402 14.75C15.3994 14.9481 15.3196 15.1374 15.1795 15.2775C15.0394 15.4176 14.8511 15.4974 14.653 15.5Z" fill="#2C9A42"/>
</svg>
