<svg width="24" height="16" viewBox="0 0 24 16" fill="none" xmlns="http://www.w3.org/2000/svg">
<path d="M16.125 0.125H7.875V15.875H16.125V0.125Z" fill="#EBF7F7"/>
<path d="M7.875 0.125H2.625C1.3875 0.125 0.375 1.025 0.375 2.3V13.7C0.375 14.975 1.3875 15.875 2.625 15.875H7.875V0.125Z" fill="#589F58"/>
<path d="M21.375 0.125H16.125V15.875H21.375C22.6125 15.875 23.625 14.975 23.625 13.7V2.3C23.625 1.025 22.6125 0.125 21.375 0.125Z" fill="#589F58"/>
<path d="M21.375 0.125H16.125V11.4125L21.3 15.875C22.5375 15.875 23.625 14.975 23.625 13.7V2.3C23.625 1.025 22.6125 0.125 21.375 0.125Z" fill="#479347"/>
<path d="M16.125 11.4125V0.125H7.875V4.5875L16.125 11.4125Z" fill="#E2F2F1"/>
<path d="M7.875 0.125H2.625L7.875 4.5875V0.125Z" fill="#479347"/>
<path d="M16.125 15.875H21.375C22.6125 15.875 23.625 15.125 23.625 13.625H16.125V15.875Z" fill="#398439"/>
<path d="M16.125 13.625H7.875V15.875H16.125V13.625Z" fill="#D6EAE8"/>
<path d="M0.375 13.625C0.375 15.125 1.3875 15.875 2.625 15.875H7.875V13.625H0.375Z" fill="#398439"/>
<path d="M21.375 0.125H16.125V4.1L23.625 6.425V2.3C23.625 1.025 22.6125 0.125 21.375 0.125Z" fill="#398439"/>
<path d="M16.125 4.1V0.125H7.875V1.6625L16.125 4.1Z" fill="#D6EAE8"/>
<path d="M7.875 0.125H2.625L7.875 1.6625V0.125Z" fill="#398439"/>
</svg>
