<svg width="31" height="31" viewBox="0 0 31 31" fill="none" xmlns="http://www.w3.org/2000/svg">
<g clip-path="url(#clip0_147_3650)">
<path d="M15.5 1.72217C12.775 1.72217 10.1112 2.53022 7.84543 4.04414C5.57968 5.55806 3.81375 7.70986 2.77095 10.2274C1.72814 12.745 1.45529 15.5152 1.98691 18.1879C2.51853 20.8605 3.83074 23.3155 5.75759 25.2423C7.68445 27.1692 10.1394 28.4814 12.812 29.013C15.4847 29.5446 18.2549 29.2718 20.7725 28.229C23.29 27.1861 25.4418 25.4202 26.9558 23.1545C28.4697 20.8887 29.2777 18.2249 29.2777 15.4999C29.2777 11.8459 27.8261 8.34142 25.2423 5.75759C22.6585 3.17375 19.154 1.72217 15.5 1.72217ZM15.5 27.5555C13.1156 27.5555 10.7848 26.8485 8.80224 25.5238C6.81972 24.1991 5.27453 22.3163 4.36207 20.1134C3.44961 17.9105 3.21087 15.4866 3.67604 13.148C4.14121 10.8095 5.28939 8.66138 6.97539 6.97538C8.66139 5.28938 10.8095 4.1412 13.148 3.67603C15.4866 3.21087 17.9106 3.44961 20.1134 4.36207C22.3163 5.27452 24.1991 6.81971 25.5238 8.80224C26.8485 10.7848 27.5555 13.1156 27.5555 15.4999C27.5555 18.6973 26.2854 21.7637 24.0245 24.0245C21.7637 26.2854 18.6973 27.5555 15.5 27.5555Z" fill="#A9A9A9"/>
<path d="M15.7499 7.68104C14.8168 7.66562 13.8917 7.85591 13.0404 8.2384C12.1891 8.62088 11.4325 9.18618 10.8244 9.8941C10.7399 9.9724 10.672 10.0669 10.6246 10.1719C10.5773 10.2769 10.5515 10.3903 10.5488 10.5055C10.5488 10.6117 10.5701 10.7169 10.6115 10.8147C10.6529 10.9126 10.7136 11.0011 10.7899 11.075C10.8662 11.1489 10.9567 11.2067 11.0558 11.245C11.1549 11.2832 11.2607 11.3012 11.3669 11.2977C11.5944 11.2921 11.8119 11.2032 11.9783 11.048C12.4385 10.5087 13.0101 10.0754 13.6538 9.77813C14.2974 9.48083 14.9979 9.3265 15.7069 9.32577C17.7391 9.32577 19.0049 10.6347 19.0049 12.2622V12.3052C19.0049 14.2083 17.4894 15.2674 15.0955 15.4483C14.9986 15.452 14.9035 15.4762 14.8166 15.5192C14.7296 15.5622 14.6527 15.6231 14.591 15.6979C14.5292 15.7727 14.4839 15.8597 14.4581 15.9532C14.4322 16.0467 14.4264 16.1446 14.4411 16.2405C14.4411 16.2405 14.4411 18.2383 14.4411 18.6085C14.4625 18.8217 14.5626 19.0192 14.7218 19.1625C14.881 19.3058 15.0879 19.3846 15.3022 19.3835H15.3969C15.61 19.3621 15.8075 19.262 15.9508 19.1028C16.0941 18.9436 16.173 18.7366 16.1719 18.5224V16.7485C18.7552 16.3869 20.8477 15.0263 20.8477 12.2019V12.1588C20.8219 9.57549 18.8069 7.68104 15.7499 7.68104Z" fill="#A9A9A9"/>
<path d="M15.3108 23.6374C15.9052 23.6374 16.3872 23.1555 16.3872 22.561C16.3872 21.9665 15.9052 21.4846 15.3108 21.4846C14.7163 21.4846 14.2344 21.9665 14.2344 22.561C14.2344 23.1555 14.7163 23.6374 15.3108 23.6374Z" fill="#A9A9A9"/>
</g>
<defs>
<clipPath id="clip0_147_3650">
<rect width="31" height="31" fill="white"/>
</clipPath>
</defs>
</svg>
