<svg width="20" height="20" viewBox="0 0 20 20" fill="none" xmlns="http://www.w3.org/2000/svg">
<path d="M0.833253 9.99953C0.833713 7.98983 1.49461 6.03597 2.71424 4.43866C3.93386 2.84135 5.64462 1.68911 7.58322 1.15927C9.52182 0.629432 11.5808 0.751364 13.4433 1.5063C15.3059 2.26124 16.8687 3.60733 17.8912 5.33743C18.9138 7.06752 19.3395 9.08573 19.1028 11.0814C18.866 13.0771 17.98 14.9398 16.581 16.3826C15.1821 17.8254 13.3477 18.7686 11.3603 19.0668C9.37281 19.365 7.34243 19.0019 5.58159 18.0332L2.01759 19.1185C1.85862 19.167 1.68948 19.1713 1.52826 19.131C1.36703 19.0907 1.2198 19.0073 1.10229 18.8898C0.984784 18.7723 0.901431 18.6251 0.861147 18.4639C0.820862 18.3026 0.825162 18.1335 0.873586 17.9745L1.95892 14.405C1.21965 13.0544 0.832522 11.5393 0.833253 9.99953ZM6.33325 9.08287C6.33325 9.32598 6.42983 9.55914 6.60174 9.73105C6.77365 9.90296 7.0068 9.99953 7.24992 9.99953H12.7499C12.993 9.99953 13.2262 9.90296 13.3981 9.73105C13.57 9.55914 13.6666 9.32598 13.6666 9.08287C13.6666 8.83975 13.57 8.60659 13.3981 8.43469C13.2262 8.26278 12.993 8.1662 12.7499 8.1662H7.24992C7.0068 8.1662 6.77365 8.26278 6.60174 8.43469C6.42983 8.60659 6.33325 8.83975 6.33325 9.08287ZM7.24992 11.8329C7.0068 11.8329 6.77365 11.9294 6.60174 12.1014C6.42983 12.2733 6.33325 12.5064 6.33325 12.7495C6.33325 12.9926 6.42983 13.2258 6.60174 13.3977C6.77365 13.5696 7.0068 13.6662 7.24992 13.6662H10.9166C11.1597 13.6662 11.3929 13.5696 11.5648 13.3977C11.7367 13.2258 11.8333 12.9926 11.8333 12.7495C11.8333 12.5064 11.7367 12.2733 11.5648 12.1014C11.3929 11.9294 11.1597 11.8329 10.9166 11.8329H7.24992Z" fill="#2C9A42"/>
</svg>
