<svg width="300" height="312" viewBox="0 0 300 312" fill="none" xmlns="http://www.w3.org/2000/svg">
<path d="M298.752 268.684C305.987 254.365 285.308 182.77 141.923 182.77C38.4274 182.77 -9.07413 241.372 1.42751 271.071" fill="url(#paint0_radial_1474_5276)"/>
<mask id="mask0_1474_5276" style="mask-type:luminance" maskUnits="userSpaceOnUse" x="0" y="182" width="300" height="90">
<path d="M298.752 268.684C305.987 254.365 285.308 182.77 141.923 182.77C38.4274 182.77 -9.07413 241.372 1.42751 271.071" fill="white"/>
</mask>
<g mask="url(#mask0_1474_5276)">
<ellipse opacity="0.671968" cx="119.807" cy="245.995" rx="7.88551" ry="4.38001" fill="url(#paint1_linear_1474_5276)"/>
<ellipse opacity="0.256348" cx="200.293" cy="216.233" rx="12.4416" ry="6.83282" fill="url(#paint2_linear_1474_5276)"/>
<ellipse opacity="0.729957" cx="58.7033" cy="198.012" rx="12.4416" ry="6.83282" fill="url(#paint3_linear_1474_5276)"/>
</g>
<path opacity="0.5" d="M116.885 198.647C116.885 198.647 147.396 212.994 159.5 218.5C169.088 222.861 218.456 236.813 224.337 232.847C230.219 228.881 243.204 217.997 238.917 210.54C234.63 203.083 212.085 189.694 201.302 187.738C190.519 185.781 159.688 194.674 159.688 194.674L133.39 199.191L116.885 198.647Z" fill="url(#paint4_linear_1474_5276)"/>
<path d="M139.5 134.5L105.5 159.5L114.566 138.231L148.615 116.614L139.5 134.5Z" fill="#E2E7EC"/>
<path d="M114 138.67L148.615 117V176.099L116.885 198.346L114 138.67Z" fill="#D8DFE6"/>
<path d="M148.615 117L201.692 129.417V188.538L148.615 176.121V117Z" fill="#E9EFF1"/>
<path d="M114 138.667L168.231 151.341V210.462L116.885 198.671L114 138.667Z" fill="#E8EAEB"/>
<path d="M167.076 151.362L201.692 129.692V188.792L167.076 210.462V151.362Z" fill="#D8DFE6"/>
<mask id="mask1_1474_5276" style="mask-type:luminance" maskUnits="userSpaceOnUse" x="167" y="129" width="35" height="82">
<path d="M167.076 151.362L201.692 129.692V188.792L167.076 210.462V151.362Z" fill="white"/>
</mask>
<g mask="url(#mask1_1474_5276)">
<rect x="179.934" y="124.768" width="10.8791" height="90.6191" fill="#C7D0D9"/>
</g>
<path d="M182.642 168.923L216.692 147.306L201.126 129.692L167.076 151.309L182.642 168.923Z" fill="#E2E7EC"/>
<path opacity="0.5" d="M87.4467 200.137L141 227.501L146 213.001L93.4558 195.522L87.4467 200.137Z" fill="url(#paint5_linear_1474_5276)"/>
<path d="M85.9846 155.154L104.451 156.61L100.35 196.778C100.35 196.778 99.991 197.179 99.1198 197.023C98.2486 196.868 97.3346 196.383 97.3346 196.383L94.5882 164.45C94.5882 164.45 92.9998 175.742 93.1107 178.918C93.1943 181.312 94.0126 184.232 94.4506 186.729C94.8275 188.878 95.6206 194.015 95.6206 194.015C95.6206 194.015 94.6835 194.443 94.1851 194.539C93.6867 194.636 93.0478 194.105 93.0478 194.105C93.0478 194.105 86.5733 181.537 86.4899 179.15C86.4066 176.763 85.9846 155.154 85.9846 155.154Z" fill="url(#paint6_linear_1474_5276)"/>
<path d="M92.761 194.046C92.761 194.046 91.9386 195.527 90.9168 196.43C89.8951 197.333 87.8789 198.411 87.4192 198.901C86.9596 199.391 87.4615 200.113 87.4615 200.113L92.403 199.94L96.3516 196.6L95.7998 193.416L92.761 194.046Z" fill="#677285"/>
<path d="M100.815 195.761L101.969 198.96C101.969 198.96 100.074 200.428 97.4567 200.836C94.8392 201.244 93.0356 200.617 93.0356 200.617C93.0356 200.617 92.563 199.665 93.4537 199.258C93.8628 199.071 94.7798 198.294 95.5848 197.299C95.9482 196.85 97.3171 195.883 97.3171 195.883L100.815 195.761Z" fill="#677285"/>
<path d="M109.088 134.213C109.088 134.213 110.601 136.515 111.529 135.899C112.457 135.283 118.251 129.344 118.251 129.344C118.251 129.344 119.975 128.018 120.293 128.333C120.612 128.648 119.719 129.344 119.719 129.344C119.719 129.344 121.599 129.529 122.187 129.529C122.774 129.529 124.01 130.467 123.202 130.783C122.394 131.099 119.259 131.177 119.259 131.177C119.259 131.177 114.499 140.178 112.019 140.816C109.538 141.455 106.121 137.845 106.121 137.845L109.088 134.213Z" fill="#DADADA"/>
<path d="M84.9043 134.378C84.9043 134.378 83.9119 136.41 83.0126 135.922C82.1133 135.435 77.0676 130.113 77.0676 130.113C77.0676 130.113 75.3872 129.084 74.9763 129.269C74.5654 129.455 75.5784 130.113 75.5784 130.113C75.5784 130.113 73.1062 130.314 72.6411 130.501C72.1761 130.688 71.6344 131.261 72.3375 131.522C73.0407 131.782 75.7324 131.968 75.7324 131.968C75.7324 131.968 79.4742 139.362 82.3092 140.226C85.1442 141.091 87.5594 137.684 87.5594 137.684L84.9043 134.378Z" fill="#DADADA"/>
<path d="M94.0826 128.155V124.522C94.0826 124.522 92.1991 124.617 91.4334 123.356C90.6677 122.095 90.4609 118.515 90.4609 118.515L91.0379 116.856L96.7112 116.616L99.6917 119.156L98.304 121.607L98.0394 122.078L99.3622 127.649L94.0826 128.155Z" fill="#DADADA"/>
<mask id="mask2_1474_5276" style="mask-type:luminance" maskUnits="userSpaceOnUse" x="90" y="116" width="10" height="13">
<path d="M94.0826 128.155V124.522C94.0826 124.522 92.1991 124.617 91.4334 123.356C90.6677 122.095 90.4609 118.515 90.4609 118.515L91.0379 116.856L96.7112 116.616L99.6917 119.156L98.304 121.607L98.0394 122.078L99.3622 127.649L94.0826 128.155Z" fill="white"/>
</mask>
<g mask="url(#mask2_1474_5276)">
<path d="M97.7735 121.07C96.0968 123.155 93.1969 124.612 92.8193 124.612C92.4417 124.612 94.9279 127.228 94.9279 127.228L96.9506 128.155L99.8216 127.546L100.846 124.612L99.0372 121.284C99.0372 121.284 99.4501 118.985 97.7735 121.07Z" fill="#DADADA"/>
</g>
<path d="M83.6992 135.837L86.4872 139.592L88.2653 137.715C88.2653 137.715 86.9129 145.129 86.4872 148.686C86.0614 152.242 85.9823 155.784 85.9823 155.784C85.9823 155.784 90.4465 157.441 93.7743 157.72C97.1022 157.999 104.849 157.281 104.849 157.281L103.849 136.409L106.751 139.103L110.158 135.169C110.158 135.169 104.293 126.156 103.184 125.631C102.075 125.106 98.9918 125.631 98.9918 125.631C98.9918 125.631 96.804 128.22 95.9168 128.256C95.0297 128.292 93.0618 125.631 93.0618 125.631C93.0618 125.631 89.9177 125.129 89.0036 126.156C88.0894 127.183 83.6992 135.837 83.6992 135.837Z" fill="#2C9A42"/>
<path d="M90.4618 118.556C90.4618 118.556 91.1304 116.869 92.0032 117.163C92.8291 117.441 93.5445 118.103 94.5721 118.414C95.5996 118.724 95.7132 117.328 96.4114 117.564C97.1097 117.8 96.6488 119.853 97.141 120.236C97.6331 120.618 97.6331 117.564 98.6823 118.386C99.7315 119.208 97.5877 121.523 97.5877 121.523C97.5877 121.523 97.8625 122.945 97.9506 123.042C98.0387 123.139 98.0287 122.007 98.0287 122.007C98.0287 122.007 99.0307 121.622 99.4577 119.887C99.8847 118.153 100.069 117.462 99.4577 116.201C98.8461 114.941 98.6717 113.954 97.141 113.359C95.6102 112.764 94.4487 112.997 93.3789 113.359C92.309 113.721 91.5336 114.44 91.0388 115.156C89.8849 116.856 90.4618 118.556 90.4618 118.556Z" fill="#4D364F"/>
<path d="M165.291 37.6543C134.234 40.2833 122.82 66.5702 132.171 81.893C138.769 92.7041 149.95 107.315 170.791 103.81C191.632 100.305 193.388 81.0173 182.412 78.3938C171.436 75.7711 132.334 88.0069 136.753 116.274C139.943 136.669 167.593 142.548 167.593 142.548" stroke="#D7DAE9" stroke-width="2" stroke-dasharray="7"/>
<path fill-rule="evenodd" clip-rule="evenodd" d="M183.241 21.5167C183.241 21.5167 187.691 9.89192 188.16 5.36976C188.407 3.0068 184.491 -3.57222 179.908 2.51337C175.325 8.59896 177.416 16.0607 183.241 21.5167Z" fill="#D8DBEA"/>
<path fill-rule="evenodd" clip-rule="evenodd" d="M167.45 8.85709C162.236 7.09409 159.876 8.46866 158.871 11.2123C157.865 13.9569 159.269 19.181 167.132 20.3719C174.996 21.5627 182.792 21.517 182.792 21.517C182.792 21.517 172.663 10.6201 167.45 8.85709Z" fill="#D8DBEA"/>
<path fill-rule="evenodd" clip-rule="evenodd" d="M182.358 23.8199C182.476 23.334 182.633 22.8683 182.807 22.4131C181.845 22.5651 180.865 22.7786 179.88 23.0677C178.811 23.3806 177.813 23.7909 176.874 24.261C176.467 25.0308 176.137 25.8533 175.922 26.7364C174.601 32.1731 177.72 37.6528 182.96 39.4471C183.528 39.3347 184.098 39.2046 184.669 39.0376C186.265 38.5702 187.737 37.9515 189.067 37.2345C183.95 34.9894 181.005 29.3866 182.358 23.8199Z" fill="#D8DBEA"/>
<path fill-rule="evenodd" clip-rule="evenodd" d="M174.877 26.656C175.002 26.1189 175.172 25.6053 175.36 25.1035C170.827 28.0078 168.288 32.5152 168.706 35.1436C165.81 36.3887 163.965 37.4376 163.965 37.4376C163.965 37.4376 166.15 37.2712 169.335 36.659C171.041 39.1519 175.77 40.821 180.999 40.2225C176.262 37.773 173.589 32.1987 174.877 26.656Z" fill="#D8DBEA"/>
<path fill-rule="evenodd" clip-rule="evenodd" d="M189.89 28.626C188.689 28.3378 187.944 27.1315 188.233 25.9233C188.521 24.7234 189.735 23.9799 190.935 24.2681C192.142 24.5581 192.879 25.769 192.591 26.9698C192.301 28.1771 191.097 28.9151 189.89 28.626ZM195.151 27.0121C194.184 23.6646 189.741 21.9359 184.499 22.5278C184.28 23.0465 184.093 23.5937 183.96 24.1605C182.793 29.1293 185.489 34.1274 190.062 35.861C193.877 33.4336 196.02 29.9965 195.151 27.0121Z" fill="#D8DBEA"/>
<defs>
<radialGradient id="paint0_radial_1474_5276" cx="0" cy="0" r="1" gradientUnits="userSpaceOnUse" gradientTransform="translate(130.111 213.392) rotate(-90) scale(51.3403 536.198)">
<stop stop-color="#EBEDF0" stop-opacity="0.24"/>
<stop offset="0.536775" stop-color="#EBEDF0" stop-opacity="0.845525"/>
<stop offset="1" stop-color="#E0E4E7" stop-opacity="0.01"/>
</radialGradient>
<linearGradient id="paint1_linear_1474_5276" x1="113.46" y1="244.834" x2="115.863" y2="249.972" gradientUnits="userSpaceOnUse">
<stop stop-color="#E1E7EA"/>
<stop offset="1" stop-color="#D0D6DC"/>
</linearGradient>
<linearGradient id="paint2_linear_1474_5276" x1="189.846" y1="215.594" x2="194.242" y2="224.763" gradientUnits="userSpaceOnUse">
<stop stop-color="#E1E7EA"/>
<stop offset="1" stop-color="#D0D6DC"/>
</linearGradient>
<linearGradient id="paint3_linear_1474_5276" x1="50.7703" y1="198.122" x2="53.2577" y2="208.032" gradientUnits="userSpaceOnUse">
<stop stop-color="#FBFBFB"/>
<stop offset="1" stop-color="#D9DFE3"/>
</linearGradient>
<linearGradient id="paint4_linear_1474_5276" x1="112.401" y1="203.622" x2="121.277" y2="243.424" gradientUnits="userSpaceOnUse">
<stop stop-color="#C4CDD1"/>
<stop offset="1" stop-color="#C6CFD3" stop-opacity="0.01"/>
</linearGradient>
<linearGradient id="paint5_linear_1474_5276" x1="85.5884" y1="207.629" x2="95.8842" y2="234.499" gradientUnits="userSpaceOnUse">
<stop stop-color="#C4CDD1"/>
<stop offset="1" stop-color="#C6CFD3" stop-opacity="0.01"/>
</linearGradient>
<linearGradient id="paint6_linear_1474_5276" x1="105.786" y1="196.851" x2="104.319" y2="154.832" gradientUnits="userSpaceOnUse">
<stop stop-color="#A1A7B8"/>
<stop offset="1" stop-color="#7B8195"/>
</linearGradient>
</defs>
</svg>
