<svg width="726" height="723" viewBox="0 0 726 723" fill="none" xmlns="http://www.w3.org/2000/svg">
<g id="No Upcoming Trips">
<g id="Group 3">
<mask id="mask0_370_2270" style="mask-type:luminance" maskUnits="userSpaceOnUse" x="67" y="158" width="609" height="348">
<path id="Clip 2" fill-rule="evenodd" clip-rule="evenodd" d="M217.458 219.705H139.589C129.471 219.705 121.195 228.007 121.195 238.158C121.195 248.308 129.471 256.611 139.589 256.611H179.218H190.831C200.95 256.611 209.226 264.917 209.226 275.067C209.226 280.14 207.152 284.763 203.817 288.095C200.495 291.444 195.885 293.523 190.831 293.523H166.055H152.376H85.6337C75.5155 293.523 67.2396 301.829 67.2396 311.976C67.2396 322.124 75.5155 330.43 85.6337 330.43H133.414C118.99 364.439 111.002 401.86 111.002 441.16C111.002 455.417 112.056 469.43 114.079 483.123C114.923 488.843 115.943 494.516 117.134 500.126C151.838 494.801 188.65 490.516 227.082 487.391L229.973 490.038L232.695 486.95C278.867 483.346 327.328 481.426 377.311 481.426C483.507 481.426 582.882 490.086 667.848 505.145C671.124 490.901 673.332 476.245 674.376 461.262C674.852 454.618 675.086 447.913 675.086 441.16C675.086 284.873 548.818 158.188 393.045 158.188C326.656 158.188 265.637 181.203 217.458 219.705Z" fill="white"/>
</mask>
<g mask="url(#mask0_370_2270)">
<path id="Fill 1" fill-rule="evenodd" clip-rule="evenodd" d="M53.7917 518.594H688.534V144.741H53.7917V518.594Z" fill="#F1F2F7"/>
</g>
</g>
<g id="Group 6">
<mask id="mask1_370_2270" style="mask-type:luminance" maskUnits="userSpaceOnUse" x="0" y="292" width="49" height="39">
<path id="Clip 5" fill-rule="evenodd" clip-rule="evenodd" d="M18.6308 292.667C8.38344 292.667 0 301.142 0 311.494C0 321.846 8.38344 330.321 18.6308 330.321H29.7791C40.0291 330.321 48.4125 321.846 48.4125 311.494C48.4125 301.142 40.0291 292.667 29.7791 292.667H18.6308Z" fill="white"/>
</mask>
<g mask="url(#mask1_370_2270)">
<path id="Fill 4" fill-rule="evenodd" clip-rule="evenodd" d="M-13.4479 343.767H61.8605V279.217H-13.4479V343.767Z" fill="#F1F2F7"/>
</g>
</g>
<g id="Group 9">
<mask id="mask2_370_2270" style="mask-type:luminance" maskUnits="userSpaceOnUse" x="116" y="481" width="610" height="242">
<path id="Clip 8" fill-rule="evenodd" clip-rule="evenodd" d="M232.286 487.32L229.562 490.389L226.67 487.759C188.249 490.865 151.448 495.118 116.75 500.413C143.783 627.582 257.014 723.001 392.593 723.001C456.076 723.001 514.652 702.071 561.793 666.764H611.972C622.085 666.764 630.361 658.51 630.361 648.427C630.361 643.392 628.287 638.793 624.955 635.482C621.631 632.155 617.021 630.089 611.972 630.089H590.149C580.033 630.089 571.758 621.837 571.758 611.752C571.758 606.714 573.831 602.117 577.164 598.804C580.488 595.477 585.098 593.414 590.149 593.414H707.611C717.727 593.414 726 585.162 726 575.074C726 570.036 723.926 565.44 720.594 562.129C717.259 558.802 712.67 556.736 707.611 556.736H650.014C657.37 540.391 663.206 523.226 667.335 505.403C582.387 490.44 483.036 481.831 376.865 481.831C326.895 481.831 278.442 483.738 232.286 487.32Z" fill="white"/>
</mask>
<g mask="url(#mask2_370_2270)">
<path id="Fill 7" fill-rule="evenodd" clip-rule="evenodd" d="M103.302 736.449H739.445V468.384H103.302V736.449Z" fill="#E8EBF2"/>
</g>
</g>
<g id="Group 12">
<mask id="mask3_370_2270" style="mask-type:luminance" maskUnits="userSpaceOnUse" x="231" y="448" width="442" height="58">
<path id="Clip 11" fill-rule="evenodd" clip-rule="evenodd" d="M618 484.446L589.603 458.419L559.216 480.974L546.478 463.425L496.194 480.974L380.356 463.425L313.022 482.015C333.611 481.326 354.53 480.974 375.727 480.974C481.78 480.974 581.026 489.799 665.882 505.145C669.147 490.627 671.356 475.694 672.396 460.426L662.784 448.664L618 484.446ZM231.304 486.603C257.834 484.489 285.12 482.946 313.022 482.015L263.281 449.557L231.304 486.603Z" fill="white"/>
</mask>
<g mask="url(#mask3_370_2270)">
<path id="Fill 10" fill-rule="evenodd" clip-rule="evenodd" d="M217.856 518.594H685.844V435.217H217.856V518.594Z" fill="#E0E2EE"/>
</g>
</g>
<g id="Group 15">
<mask id="mask4_370_2270" style="mask-type:luminance" maskUnits="userSpaceOnUse" x="225" y="486" width="7" height="4">
<path id="Clip 14" fill-rule="evenodd" clip-rule="evenodd" d="M225.925 486.704L228.696 489.009L231.304 486.316C229.508 486.435 227.708 486.564 225.925 486.704Z" fill="white"/>
</mask>
<g mask="url(#mask4_370_2270)">
<path id="Fill 13" fill-rule="evenodd" clip-rule="evenodd" d="M212.477 502.455H244.752V472.869H212.477V502.455Z" fill="#F1F2F7"/>
</g>
</g>
<g id="Group 18">
<mask id="mask5_370_2270" style="mask-type:luminance" maskUnits="userSpaceOnUse" x="112" y="437" width="114" height="63">
<path id="Clip 17" fill-rule="evenodd" clip-rule="evenodd" d="M112.963 482.733C113.807 488.465 114.826 494.145 116.013 499.764C150.705 494.43 187.507 490.14 225.925 487.01L172.427 437.903L112.963 482.733Z" fill="white"/>
</mask>
<g mask="url(#mask5_370_2270)">
<path id="Fill 16" fill-rule="evenodd" clip-rule="evenodd" d="M99.5145 513.209H239.373V424.453H99.5145V513.209Z" fill="#E0E2EE"/>
</g>
</g>
<g id="Group 21">
<mask id="mask6_370_2270" style="mask-type:luminance" maskUnits="userSpaceOnUse" x="292" y="587" width="211" height="20">
<path id="Clip 20" fill-rule="evenodd" clip-rule="evenodd" d="M292.404 597.176C292.404 602.373 339.367 606.59 397.3 606.59C455.231 606.59 502.194 602.373 502.194 597.176C502.194 591.98 455.231 587.763 397.3 587.763C339.367 587.763 292.404 591.98 292.404 597.176Z" fill="white"/>
</mask>
<g mask="url(#mask6_370_2270)">
<path id="Fill 19" fill-rule="evenodd" clip-rule="evenodd" d="M278.958 620.038H515.642V574.315H278.958V620.038Z" fill="#D8DBEA"/>
</g>
</g>
<g id="Group 24">
<mask id="mask7_370_2270" style="mask-type:luminance" maskUnits="userSpaceOnUse" x="648" y="628" width="38" height="39">
<path id="Clip 23" fill-rule="evenodd" clip-rule="evenodd" d="M648.19 647.693C648.19 658.048 656.662 666.52 667.017 666.52C677.372 666.52 685.844 658.048 685.844 647.693C685.844 637.341 677.372 628.866 667.017 628.866C656.662 628.866 648.19 637.341 648.19 647.693Z" fill="white"/>
</mask>
<g mask="url(#mask7_370_2270)">
<path id="Fill 22" fill-rule="evenodd" clip-rule="evenodd" d="M634.742 679.969H699.292V615.419H634.742V679.969Z" fill="#E1E3EF"/>
</g>
</g>
<g id="Group 47">
<path id="Fill 25" fill-rule="evenodd" clip-rule="evenodd" d="M394.526 368.601C385.769 368.601 378.668 361.501 378.668 352.743C378.668 343.989 385.769 336.891 394.526 336.891C403.283 336.891 410.384 343.989 410.384 352.743C410.384 361.501 403.283 368.601 394.526 368.601ZM394.526 330.322C382.143 330.322 372.103 340.36 372.103 352.743C372.103 365.131 382.143 375.168 394.526 375.168C406.909 375.168 416.952 365.131 416.952 352.743C416.952 340.36 406.909 330.322 394.526 330.322Z" fill="#D8DBEA"/>
<path id="Fill 27" fill-rule="evenodd" clip-rule="evenodd" d="M455.296 562.971H333.757C321.653 562.971 311.836 553.159 311.836 541.054V429.285C311.836 385.647 347.543 349.942 391.179 349.942H397.871C441.512 349.942 477.214 385.647 477.214 429.285V541.054C477.214 553.159 467.402 562.971 455.296 562.971Z" fill="#D8DBEA"/>
<path id="Fill 29" fill-rule="evenodd" clip-rule="evenodd" d="M487.175 536.346H485.986C481.161 536.346 477.215 532.398 477.215 527.575V465.231C477.215 460.406 481.161 456.46 485.986 456.46H497.877C502.699 456.46 506.645 460.406 506.645 465.231V516.873C506.645 527.583 497.882 536.346 487.175 536.346Z" fill="url(#paint0_linear_370_2270)"/>
<path id="Fill 31" fill-rule="evenodd" clip-rule="evenodd" d="M303.069 536.346H301.881C291.168 536.346 282.405 527.583 282.405 516.873V465.231C282.405 460.406 286.351 456.46 291.176 456.46H303.069C307.892 456.46 311.838 460.406 311.838 465.231V527.575C311.838 532.398 307.892 536.346 303.069 536.346Z" fill="url(#paint1_linear_370_2270)"/>
<path id="Fill 33" fill-rule="evenodd" clip-rule="evenodd" d="M446.382 532.807L393.125 549.66L339.866 532.807V496.4H446.382V532.807Z" fill="#BEC0D6"/>
<path id="Fill 35" fill-rule="evenodd" clip-rule="evenodd" d="M361.416 542.492L358.917 544.982C356.841 547.051 353.479 547.051 351.4 544.982L348.904 542.492V519.208H361.416V542.492Z" fill="url(#paint2_linear_370_2270)"/>
<path id="Fill 37" fill-rule="evenodd" clip-rule="evenodd" d="M357.689 538.394C357.689 539.793 356.556 540.923 355.16 540.923C353.762 540.923 352.629 539.793 352.629 538.394C352.629 536.996 353.762 535.866 355.16 535.866C356.556 535.866 357.689 536.996 357.689 538.394Z" fill="#F7FFF6"/>
<path id="Fill 39" fill-rule="evenodd" clip-rule="evenodd" d="M432.892 542.492L430.393 544.982C428.317 547.051 424.955 547.051 422.876 544.982L420.38 542.492V519.208H432.892V542.492Z" fill="url(#paint3_linear_370_2270)"/>
<path id="Fill 41" fill-rule="evenodd" clip-rule="evenodd" d="M429.165 538.394C429.165 539.793 428.033 540.923 426.637 540.923C425.238 540.923 424.106 539.793 424.106 538.394C424.106 536.996 425.238 535.866 426.637 535.866C428.033 535.866 429.165 536.996 429.165 538.394Z" fill="#F7FFF6"/>
<path id="Fill 43" fill-rule="evenodd" clip-rule="evenodd" d="M469.272 433.388V445.244V469.856L328.881 402.617C338.214 378.76 361.535 361.775 388.585 361.775H400.47C435.73 361.775 469.272 398.098 469.272 433.388Z" fill="white"/>
<path id="Fill 45" fill-rule="evenodd" clip-rule="evenodd" d="M328.881 439.584V427.729V403.116L469.272 470.359C459.942 494.212 436.62 511.197 409.568 511.197H397.686C362.423 511.197 328.881 474.874 328.881 439.584Z" fill="url(#paint4_linear_370_2270)"/>
</g>
<g id="Bee">
<path id="Stroke 3" d="M439.69 115.154C346.522 123.041 312.28 201.902 340.332 247.871C360.126 280.304 393.668 324.136 456.192 313.622C518.714 303.106 523.982 245.243 491.054 237.373C458.127 229.505 340.821 266.212 354.079 351.013C363.649 412.199 446.598 429.836 446.598 429.836" stroke="#D7DAE9" stroke-width="2" stroke-dasharray="7"/>
<path id="Fill 5" fill-rule="evenodd" clip-rule="evenodd" d="M493.541 66.7415C493.541 66.7415 506.891 31.8672 508.298 18.3007C509.039 11.2118 497.291 -8.52526 483.542 9.73152C469.794 27.9883 476.066 50.3734 493.541 66.7415Z" fill="#D8DBEA"/>
<path id="Fill 7_2" fill-rule="evenodd" clip-rule="evenodd" d="M446.168 28.7627C430.528 23.4737 423.448 27.5974 420.432 35.8284C417.412 44.0621 421.627 59.7344 445.215 63.307C468.807 66.8796 492.194 66.7425 492.194 66.7425C492.194 66.7425 461.808 34.0517 446.168 28.7627Z" fill="#D8DBEA"/>
<path id="Fill 9" fill-rule="evenodd" clip-rule="evenodd" d="M490.893 73.6512C491.248 72.1934 491.717 70.7962 492.24 69.4307C489.353 69.8867 486.415 70.5273 483.458 71.3946C480.251 72.3331 477.257 73.5642 474.441 74.9745C473.219 77.2838 472.229 79.7513 471.586 82.4006C467.623 98.7106 476.979 115.15 492.699 120.533C494.402 120.195 496.112 119.805 497.825 119.304C502.613 117.902 507.029 116.046 511.021 113.895C495.669 107.16 486.834 90.3513 490.893 73.6512Z" fill="#D8DBEA"/>
<path id="Fill 11" fill-rule="evenodd" clip-rule="evenodd" d="M468.449 82.1594C468.824 80.5482 469.334 79.0074 469.899 77.502C456.299 86.2147 448.683 99.7369 449.938 107.622C441.248 111.357 435.713 114.504 435.713 114.504C435.713 114.504 442.27 114.005 451.825 112.169C456.942 119.647 471.128 124.655 486.815 122.859C472.605 115.51 464.584 98.7875 468.449 82.1594Z" fill="#D8DBEA"/>
<path id="Fill 13_2" fill-rule="evenodd" clip-rule="evenodd" d="M513.487 88.0693C509.885 87.2048 507.651 83.5858 508.519 79.9613C509.383 76.3617 513.025 74.131 516.624 74.9956C520.244 75.8657 522.455 79.4985 521.593 83.1009C520.723 86.7226 517.109 88.9367 513.487 88.0693ZM529.271 83.2278C526.371 73.1852 513.041 67.999 497.315 69.7749C496.657 71.331 496.098 72.9726 495.699 74.6729C492.197 89.5793 500.286 104.574 514.004 109.774C525.451 102.492 531.879 92.1809 529.271 83.2278Z" fill="#D8DBEA"/>
</g>
</g>
<defs>
<linearGradient id="paint0_linear_370_2270" x1="491.93" y1="416.517" x2="440.105" y2="435.609" gradientUnits="userSpaceOnUse">
<stop stop-color="#2C9A42"/>
<stop offset="1" stop-color="#00C31F" stop-opacity="0.5"/>
</linearGradient>
<linearGradient id="paint1_linear_370_2270" x1="297.121" y1="416.517" x2="245.292" y2="435.612" gradientUnits="userSpaceOnUse">
<stop stop-color="#2C9A42"/>
<stop offset="1" stop-color="#00C31F" stop-opacity="0.5"/>
</linearGradient>
<linearGradient id="paint2_linear_370_2270" x1="355.16" y1="505.545" x2="334.473" y2="515.017" gradientUnits="userSpaceOnUse">
<stop stop-color="#2C9A42"/>
<stop offset="1" stop-color="#00C31F" stop-opacity="0.5"/>
</linearGradient>
<linearGradient id="paint3_linear_370_2270" x1="426.636" y1="505.545" x2="405.949" y2="515.017" gradientUnits="userSpaceOnUse">
<stop stop-color="#2C9A42"/>
<stop offset="1" stop-color="#00C31F" stop-opacity="0.5"/>
</linearGradient>
<linearGradient id="paint4_linear_370_2270" x1="399.076" y1="349.076" x2="294.589" y2="484.798" gradientUnits="userSpaceOnUse">
<stop stop-color="#2C9A42"/>
<stop offset="1" stop-color="#00C31F" stop-opacity="0.5"/>
</linearGradient>
</defs>
</svg>
