<svg width="20" height="20" viewBox="0 0 20 20" fill="none" xmlns="http://www.w3.org/2000/svg">
<path d="M18.0502 8.69992L17.2335 12.1833C16.5335 15.1916 15.1502 16.4083 12.5502 16.1583C12.1335 16.1249 11.6835 16.0499 11.2002 15.9333L9.80016 15.5999C6.32516 14.7749 5.25015 13.0583 6.06682 9.57493L6.88349 6.08326C7.05016 5.37493 7.25015 4.75826 7.50015 4.24993C8.47515 2.23326 10.1335 1.69159 12.9168 2.34993L14.3085 2.67493C17.8002 3.49159 18.8668 5.21659 18.0502 8.69992Z" stroke="#373737" stroke-width="1.5" stroke-linecap="round" stroke-linejoin="round"/>
<path d="M12.5499 16.1583C12.0332 16.5083 11.3832 16.8 10.5915 17.0583L9.27487 17.4917C5.96654 18.5583 4.22487 17.6667 3.14987 14.3583L2.08321 11.0667C1.01654 7.75833 1.89987 6.00833 5.20821 4.94167L6.52487 4.50833C6.86654 4.4 7.19154 4.30833 7.49987 4.25C7.24987 4.75833 7.04987 5.375 6.88321 6.08333L6.06654 9.575C5.24987 13.0583 6.32487 14.775 9.79987 15.6L11.1999 15.9333C11.6832 16.05 12.1332 16.125 12.5499 16.1583Z" stroke="#373737" stroke-width="1.5" stroke-linecap="round" stroke-linejoin="round"/>
<path d="M10.533 7.1084L14.5747 8.1334" stroke="#373737" stroke-width="1.5" stroke-linecap="round" stroke-linejoin="round"/>
<path d="M9.7168 10.3335L12.1335 10.9502" stroke="#373737" stroke-width="1.5" stroke-linecap="round" stroke-linejoin="round"/>
</svg>
