<svg width="31" height="27" viewBox="0 0 31 27" fill="none" xmlns="http://www.w3.org/2000/svg">
<path fill-rule="evenodd" clip-rule="evenodd" d="M0.0500488 24.4632C0.0500488 17.0946 0.0500488 9.72599 0.0500488 2.3574C0.067321 2.31841 0.0897491 2.28083 0.101092 2.24017C0.434613 1.04394 1.23777 0.41402 2.46287 0.413633C10.873 0.411184 19.2831 0.411248 27.6932 0.417113C27.9681 0.417307 28.2547 0.45024 28.5158 0.531896C29.5227 0.847049 30.0951 1.71362 30.0946 2.88697C30.0916 9.88988 30.087 16.8929 30.0829 23.8958C30.0819 25.4559 29.1373 26.3987 27.5737 26.3988C22.053 26.3992 16.5322 26.3989 11.0114 26.3989C8.14355 26.3989 5.27573 26.4011 2.40796 26.3977C1.43711 26.3965 0.724567 25.9546 0.282515 25.0925C0.181331 24.895 0.126356 24.6737 0.0500488 24.4632ZM1.33902 5.99217C1.33902 6.12093 1.33902 6.21645 1.33902 6.31209C1.33902 12.1977 1.3387 18.0833 1.33947 23.9688C1.33953 24.7159 1.74118 25.1096 2.50044 25.1097C10.8777 25.1102 19.2549 25.1102 27.6322 25.1097C28.4051 25.1096 28.7926 24.7169 28.7939 23.9371C28.7982 21.5745 28.8044 19.2118 28.8057 16.8491C28.8077 13.3479 28.8064 9.84657 28.8055 6.34534C28.8055 6.23153 28.7952 6.11784 28.7892 5.99223C19.6331 5.99216 10.5082 5.99217 1.33902 5.99217ZM28.7936 4.67535C28.7936 3.94657 28.8218 3.23905 28.7764 2.53631C28.7626 2.32228 28.5923 2.04624 28.41 1.93301C28.173 1.78561 27.8528 1.71059 27.5683 1.71021C19.2461 1.69912 10.9239 1.70125 2.60163 1.70144C2.49426 1.70144 2.38663 1.69932 2.27958 1.70628C1.81607 1.7365 1.38503 2.08652 1.36003 2.5472C1.32194 3.2502 1.35004 3.95675 1.35004 4.67535C10.5011 4.67535 19.6258 4.67535 28.7936 4.67535Z" fill="#393737"/>
<path fill-rule="evenodd" clip-rule="evenodd" d="M11.3434 8.7657C11.437 8.70196 11.4939 8.65858 11.5551 8.62217C11.866 8.43707 12.2132 8.49231 12.4206 8.75803C12.637 9.03548 12.6032 9.40006 12.3163 9.64922C12.0654 9.86699 11.8035 10.0737 11.5332 10.2666C11.377 10.3781 11.3188 10.5015 11.3209 10.6939C11.3307 11.6166 11.3262 12.5396 11.3249 13.4624C11.3241 14.0635 11.1069 14.2878 10.5195 14.2883C8.84548 14.2899 7.17143 14.2901 5.49744 14.288C4.94435 14.2873 4.7151 14.0616 4.71382 13.5036C4.70988 11.8295 4.71001 10.1555 4.71375 8.48148C4.71504 7.90879 4.94003 7.69263 5.52464 7.69186C7.16653 7.68967 8.80836 7.69044 10.4502 7.69128C11.1201 7.6916 11.3082 7.87689 11.3258 8.54458C11.3273 8.60393 11.335 8.66297 11.3434 8.7657ZM10.0275 11.46C9.58593 11.8046 9.19492 12.1173 8.7954 12.419C8.42901 12.6958 8.11019 12.6604 7.80644 12.3134C7.47408 11.9337 7.14687 11.5495 6.82251 11.163C6.53938 10.8257 6.55002 10.4385 6.84074 10.1923C7.13721 9.94117 7.49593 9.99048 7.80167 10.331C8.01538 10.5691 8.22233 10.8134 8.43945 11.063C8.83033 10.7557 9.1772 10.4254 9.57748 10.1833C10.062 9.89033 10.1118 9.49448 9.99904 9.00493C8.67714 9.00493 7.35388 9.00493 6.02334 9.00493C6.02334 10.3453 6.02334 11.6605 6.02334 12.9738C7.37012 12.9738 8.6946 12.9738 10.0275 12.9738C10.0275 12.477 10.0275 12.0061 10.0275 11.46Z" fill="#2C9A42"/>
<path fill-rule="evenodd" clip-rule="evenodd" d="M11.3252 19.5986C11.3252 20.4354 11.3272 21.2724 11.3244 22.1092C11.3226 22.6512 11.0836 22.8921 10.5354 22.8932C8.86168 22.8965 7.18795 22.8963 5.51423 22.8934C4.9503 22.8923 4.71455 22.6556 4.71345 22.0878C4.7103 20.4248 4.71055 18.7619 4.71326 17.0989C4.71423 16.5112 4.94695 16.2835 5.53582 16.2831C7.19878 16.2821 8.86181 16.2817 10.5248 16.2833C11.0935 16.2839 11.3233 16.516 11.3247 17.088C11.3267 17.925 11.3252 18.7618 11.3252 19.5986ZM10.0098 21.6056C10.0098 20.233 10.0098 18.9103 10.0098 17.5893C8.66866 17.5893 7.35423 17.5893 6.04071 17.5893C6.0253 17.6351 6.00655 17.6648 6.00648 17.6945C6.00384 18.9273 6.00597 20.16 5.99875 21.3927C5.99753 21.6022 6.11508 21.6074 6.26737 21.6067C6.84625 21.6037 7.42512 21.6056 8.004 21.6056C8.66666 21.6056 9.32932 21.6056 10.0098 21.6056Z" fill="#393737"/>
<path fill-rule="evenodd" clip-rule="evenodd" d="M19.7102 10.2277C18.1104 10.2277 16.5105 10.2365 14.911 10.2171C14.6985 10.2144 14.4369 10.1207 14.287 9.97668C13.9806 9.68209 14.1289 9.15232 14.5308 8.99971C14.6568 8.95189 14.8031 8.94138 14.9401 8.94125C18.118 8.93816 21.2961 8.93887 24.474 8.93887C24.5169 8.93887 24.56 8.93771 24.6029 8.93938C25.0144 8.95517 25.3039 9.22154 25.3047 9.58458C25.3055 9.95013 25.0195 10.2227 24.6055 10.2253C23.6073 10.2315 22.6089 10.2277 21.6105 10.2278C20.9771 10.2278 20.3436 10.2278 19.7102 10.2277Z" fill="#393737"/>
<path fill-rule="evenodd" clip-rule="evenodd" d="M19.706 11.7557C21.3483 11.7561 22.9907 11.7533 24.6329 11.7582C25.0164 11.7594 25.2813 12.0092 25.3034 12.3575C25.3257 12.7074 25.0591 12.9971 24.6715 13.0381C24.5759 13.0482 24.4785 13.044 24.382 13.044C23.5661 13.0444 22.7503 13.0443 21.9344 13.0443C19.6475 13.0443 17.3604 13.0443 15.0735 13.0442C14.9769 13.0442 14.8798 13.0483 14.7838 13.0402C14.3849 13.0063 14.1251 12.7414 14.1316 12.3804C14.1381 12.0217 14.4115 11.7615 14.81 11.7576C15.5079 11.7509 16.2058 11.7554 16.9037 11.7553C17.8379 11.7552 18.772 11.7553 19.706 11.7557Z" fill="#393737"/>
<path fill-rule="evenodd" clip-rule="evenodd" d="M19.6792 18.6713C18.1331 18.6713 16.587 18.6715 15.0409 18.671C14.9228 18.6709 14.8035 18.6762 14.687 18.6616C14.3844 18.6237 14.1604 18.3816 14.1363 18.0795C14.1128 17.7849 14.2743 17.5241 14.5598 17.4326C14.6793 17.3943 14.8122 17.3844 14.9391 17.3843C18.1278 17.3818 21.3165 17.3824 24.5052 17.3824C24.5589 17.3824 24.6128 17.3802 24.6662 17.3845C25.0342 17.4152 25.3033 17.6867 25.3048 18.0269C25.3062 18.3814 25.0282 18.6625 24.6389 18.6671C23.8339 18.6763 23.0288 18.6711 22.2237 18.6713C21.3756 18.6716 20.5274 18.6714 19.6792 18.6713Z" fill="#393737"/>
<path fill-rule="evenodd" clip-rule="evenodd" d="M19.702 21.4867C18.1344 21.4867 16.5669 21.4889 14.9993 21.4835C14.8307 21.4829 14.6515 21.4662 14.4961 21.4072C14.2285 21.3056 14.0903 21.0066 14.1484 20.7175C14.2079 20.4216 14.3919 20.246 14.692 20.2062C14.8083 20.1908 14.9278 20.1979 15.0459 20.1979C17.2148 20.1976 19.3836 20.1977 21.5525 20.1977C22.5398 20.1977 23.5272 20.1965 24.5145 20.1982C25.0118 20.1991 25.3099 20.4445 25.3048 20.8422C25.2997 21.2352 24.9946 21.4849 24.501 21.4856C22.9012 21.4882 21.3016 21.4866 19.702 21.4867Z" fill="#393737"/>
<path fill-rule="evenodd" clip-rule="evenodd" d="M27.5673 3.2069C27.5603 3.55015 27.2626 3.8381 26.9225 3.83069C26.5827 3.82328 26.291 3.52031 26.2984 3.18234C26.3058 2.84167 26.6078 2.5512 26.9468 2.55874C27.2892 2.56634 27.5742 2.86409 27.5673 3.2069Z" fill="#2C9A42"/>
<path fill-rule="evenodd" clip-rule="evenodd" d="M25.0487 3.20855C25.0399 3.54981 24.7379 3.83931 24.3993 3.83074C24.0597 3.82223 23.7686 3.5179 23.7771 3.18039C23.7857 2.84042 24.0894 2.55015 24.4275 2.55878C24.7687 2.56768 25.0573 2.86949 25.0487 3.20855Z" fill="#2C9A42"/>
<path fill-rule="evenodd" clip-rule="evenodd" d="M22.5288 3.19162C22.5303 3.53081 22.2346 3.82901 21.8952 3.83049C21.5563 3.83198 21.2599 3.53712 21.2582 3.19684C21.2564 2.85552 21.5484 2.56041 21.8898 2.5586C22.2293 2.5568 22.5274 2.8521 22.5288 3.19162Z" fill="#2C9A42"/>
</svg>
