<svg width="19" height="16" viewBox="0 0 19 16" fill="none" xmlns="http://www.w3.org/2000/svg">
<path d="M18.243 8.43738C18.3209 8.39407 18.3858 8.33071 18.431 8.25388C18.4762 8.17704 18.5 8.08952 18.5 8.00038C18.5 7.91124 18.4762 7.82372 18.431 7.74689C18.3858 7.67005 18.3209 7.6067 18.243 7.56338L15.961 6.29538C11.4639 3.79731 6.72328 1.76542 1.813 0.231383L1.148 0.0233825C1.07323 0.000212094 0.994064 -0.00507884 0.916875 0.00793485C0.839687 0.0209485 0.766632 0.0519033 0.703591 0.0983079C0.640551 0.144713 0.589287 0.20527 0.553925 0.275106C0.518564 0.344942 0.500093 0.422105 0.5 0.500383V6.25038C0.499827 6.37861 0.548922 6.502 0.637138 6.59505C0.725355 6.68811 0.84595 6.74372 0.974 6.75038L1.984 6.80338C4.44547 6.9325 6.89192 7.26632 9.298 7.80138L9.536 7.85438C9.589 7.86538 9.612 7.88738 9.625 7.90438C9.64452 7.93254 9.65466 7.96613 9.654 8.00038C9.654 8.04038 9.641 8.07438 9.625 8.09638C9.612 8.11338 9.589 8.13538 9.536 8.14638L9.298 8.19938C6.89154 8.73439 4.44479 9.06853 1.983 9.19838L0.973 9.25138C0.8453 9.25829 0.725099 9.31386 0.63712 9.40668C0.54914 9.4995 0.50007 9.62249 0.5 9.75038V15.5004C0.499996 15.5789 0.518478 15.6563 0.553951 15.7263C0.589424 15.7964 0.640891 15.8571 0.704184 15.9035C0.767478 15.95 0.84082 15.9809 0.918272 15.9937C0.995723 16.0065 1.07511 16.0009 1.15 15.9774L1.814 15.7694C6.72393 14.2353 11.4642 12.2034 15.961 9.70538L18.243 8.43738Z" fill="#2C9A42"/>
</svg>
