<svg width="31" height="31" viewBox="0 0 31 31" fill="none" xmlns="http://www.w3.org/2000/svg">
<path fill-rule="evenodd" clip-rule="evenodd" d="M17.4375 6.21365V9.68758H15.5V6.21365L10.3715 11.3422L9.00165 9.97046L15.7829 3.18921H17.1527L23.934 9.97046L22.5641 11.3422L17.4375 6.21365Z" fill="white"/>
<path d="M28.0938 17.4375L29.0625 18.4062V28.0938L28.0938 29.0625H4.84375L3.875 28.0938V18.4062L4.84375 17.4375H11.7219C11.9442 18.5325 12.5383 19.5169 13.4034 20.224C14.2685 20.9311 15.3514 21.3174 16.4688 21.3174C17.5861 21.3174 18.669 20.9311 19.5341 20.224C20.3992 19.5169 20.9933 18.5325 21.2156 17.4375H28.0938ZM10.3404 19.375H5.8125V27.125H27.125V19.375H22.5971C22.0474 20.5352 21.1797 21.5155 20.0949 22.202C19.01 22.8885 17.7526 23.253 16.4688 23.253C15.1849 23.253 13.9275 22.8885 12.8426 22.202C11.7578 21.5155 10.8901 20.5352 10.3404 19.375ZM17.4375 11.625H15.5V13.5625H17.4375V11.625ZM17.4375 15.5H15.5V17.4375H17.4375V15.5Z" fill="white"/>
</svg>
