<svg width="31" height="30" viewBox="0 0 31 30" fill="none" xmlns="http://www.w3.org/2000/svg">
<g clip-path="url(#clip0_370_1707)">
<path fill-rule="evenodd" clip-rule="evenodd" d="M25.1408 0.650814C25.4225 0.818794 25.5235 1.06812 25.5004 1.39257C25.4822 1.64831 25.4968 1.90639 25.4968 2.21764C25.8072 2.21764 26.0944 2.21756 26.3817 2.21764C26.955 2.21771 27.5287 2.2074 28.1018 2.22046C28.9911 2.24065 29.5683 2.80525 29.5691 3.67699C29.5726 7.71295 29.5676 11.7488 29.5627 15.7847C29.5622 16.1816 29.3712 16.3927 29.0395 16.3939C28.7074 16.3951 28.5124 16.1798 28.5122 15.789C28.5111 14.2476 28.515 12.7062 28.5164 11.1648C28.5172 10.2615 28.5166 9.35807 28.5166 8.43479C19.567 8.43479 10.646 8.43479 1.69025 8.43479C1.69025 8.57473 1.69025 8.70091 1.69025 8.82709C1.69025 15.1576 1.69025 21.488 1.69032 27.8185C1.69039 28.3953 1.75471 28.4595 2.33838 28.4591C7.12416 28.4561 11.91 28.4517 16.6958 28.4501C17.5499 28.4499 18.404 28.4601 19.2581 28.4678C19.6507 28.4712 19.8671 28.6555 19.874 28.9844C19.8813 29.3308 19.6625 29.5255 19.2484 29.5254C13.5498 29.5239 7.85094 29.52 2.1523 29.5189C1.36906 29.5187 0.891212 29.1132 0.637085 28.3965C0.637085 20.0422 0.637085 11.6878 0.637085 3.33333C0.932361 2.49711 1.5371 2.1663 2.39687 2.21283C2.86208 2.23804 3.32961 2.21735 3.79622 2.21728C4.09409 2.21728 4.39197 2.21735 4.71154 2.21735C4.71154 1.92129 4.72362 1.67585 4.70866 1.43211C4.68844 1.10391 4.76652 0.830727 5.06046 0.650462C5.17745 0.650462 5.29451 0.650462 5.41149 0.650462C5.68212 0.824161 5.79244 1.06819 5.76885 1.39271C5.74961 1.657 5.76484 1.92383 5.76484 2.19462C6.74729 2.19462 7.68536 2.19462 8.65468 2.19462C8.65468 1.9287 8.66718 1.68418 8.65166 1.44143C8.6308 1.11415 8.72652 0.847956 8.99223 0.650391C9.10929 0.650391 9.22634 0.650391 9.34333 0.650391C9.63187 0.810886 9.73256 1.05964 9.71163 1.38409C9.6945 1.64937 9.70813 1.91677 9.70813 2.19511C10.6923 2.19511 11.6319 2.19511 12.6079 2.19511C12.6079 1.90611 12.6158 1.6385 12.6059 1.37159C12.5939 1.0499 12.6929 0.797187 12.9944 0.650391C13.0879 0.650391 13.1816 0.650391 13.2752 0.650391C13.5745 0.798953 13.6754 1.05103 13.6636 1.37279C13.6537 1.6397 13.6616 1.90724 13.6616 2.18537C14.6461 2.18537 15.5926 2.18537 16.5613 2.18537C16.5613 1.89693 16.5751 1.63892 16.5579 1.38303C16.536 1.05851 16.6355 0.809403 16.9261 0.650391C17.0431 0.650391 17.1602 0.650391 17.2772 0.650391C17.8407 1.05456 17.5013 1.69153 17.6514 2.18911C18.6093 2.18911 19.5466 2.18911 20.5046 2.18911C20.5046 1.90462 20.5196 1.6469 20.5008 1.39179C20.4769 1.06776 20.5835 0.821901 20.858 0.650391C20.9749 0.650391 21.092 0.650391 21.209 0.650391C21.4985 0.833057 21.5815 1.10391 21.561 1.43295C21.5453 1.68559 21.5579 1.94 21.5579 2.19257C22.5426 2.19257 23.4803 2.19257 24.4436 2.19257C24.4436 1.92411 24.4563 1.67889 24.4405 1.43557C24.4191 1.10646 24.5083 0.837929 24.7899 0.650391C24.9068 0.650814 25.0237 0.650814 25.1408 0.650814ZM1.69102 7.33243C10.6562 7.33243 19.5746 7.33243 28.5164 7.33243C28.5164 6.0883 28.5198 4.86697 28.5139 3.64571C28.5124 3.35374 28.3068 3.27798 28.0585 3.27762C27.4034 3.27642 26.7484 3.27699 26.0934 3.27685C25.9008 3.27685 25.7082 3.27685 25.4975 3.27685C25.4975 3.7267 25.5199 4.11618 25.4872 4.501C25.4729 4.66912 25.386 4.88547 25.2589 4.97408C25.1339 5.06114 24.8683 5.08649 24.7517 5.0079C24.6034 4.90806 24.4784 4.6836 24.458 4.49994C24.4144 4.10869 24.4447 3.70919 24.4447 3.30142C23.4626 3.30142 22.5229 3.30142 21.5579 3.30142C21.5579 3.68878 21.5611 4.05185 21.557 4.41493C21.5524 4.83364 21.3632 5.07859 21.0445 5.09002C20.7131 5.10189 20.5088 4.84769 20.5052 4.41196C20.5023 4.04126 20.5046 3.67056 20.5046 3.29648C19.5183 3.29648 18.5875 3.29648 17.614 3.29648C17.614 3.69987 17.623 4.08476 17.6115 4.46894C17.6 4.85228 17.3843 5.09144 17.0782 5.08967C16.77 5.08783 16.5691 4.84974 16.563 4.46273C16.5569 4.07904 16.5616 3.69514 16.5616 3.27826C15.6271 3.27826 14.7407 3.2736 13.8546 3.288C13.7896 3.28906 13.6771 3.42484 13.6717 3.50386C13.6497 3.81997 13.6798 4.13998 13.6532 4.45532C13.6393 4.62012 13.591 4.83046 13.4789 4.92529C13.3584 5.02718 13.1354 5.07258 12.9741 5.04455C12.7099 4.99872 12.6152 4.76557 12.6119 4.50976C12.6067 4.11286 12.6105 3.71589 12.6105 3.3005C11.6238 3.3005 10.6842 3.3005 9.70194 3.3005C9.70194 3.74379 9.71128 4.16476 9.69885 4.58496C9.68973 4.89189 9.49648 5.06609 9.20752 5.08197C8.93247 5.09716 8.73838 4.94266 8.68515 4.66051C8.65721 4.51209 8.65798 4.35717 8.65595 4.20501C8.6518 3.9047 8.65468 3.60419 8.65468 3.30685C7.66008 3.30685 6.7211 3.30685 5.76477 3.30685C5.76477 3.70078 5.76786 4.06485 5.764 4.42884C5.75957 4.84275 5.56211 5.08918 5.24163 5.0908C4.91981 5.09235 4.71835 4.84685 4.71281 4.43322C4.70782 4.06033 4.71168 3.68737 4.71168 3.28087C3.79952 3.28087 2.92535 3.27423 2.05146 3.28539C1.82205 3.28829 1.69137 3.43706 1.69123 3.67847C1.69074 4.88815 1.69102 6.09804 1.69102 7.33243Z" fill="#393737"/>
<path fill-rule="evenodd" clip-rule="evenodd" d="M28.2783 21.6438C28.7071 21.8342 29.1512 21.9668 29.5232 22.2103C30.3311 22.7392 30.6644 23.5702 30.6933 24.499C30.7328 25.7678 30.7098 27.0389 30.7007 28.3089C30.6953 29.0814 30.2364 29.5262 29.4675 29.5262C27.1401 29.5263 24.8128 29.5252 22.4855 29.5214C21.625 29.52 21.1968 29.0869 21.1941 28.2154C21.1904 27.0276 21.1914 25.8398 21.1936 24.652C21.1966 23.1255 22.0349 22.0783 23.523 21.7357C23.5558 21.7283 23.5853 21.7071 23.6522 21.6752C23.0434 20.86 22.8022 19.9595 23.0619 18.966C23.2336 18.3091 23.5983 17.7625 24.143 17.3627C25.4059 16.4357 26.892 16.5355 28.0414 17.6136C28.8787 18.399 29.4405 20.0523 28.2783 21.6438ZM22.267 28.4483C22.5943 28.4483 22.8824 28.4483 23.2179 28.4483C23.2179 28.2026 23.2177 27.9707 23.218 27.7391C23.2187 27.0453 23.2118 26.3515 23.2236 25.6577C23.2295 25.3121 23.4317 25.0962 23.7168 25.0826C24.012 25.0687 24.2354 25.292 24.2655 25.6446C24.2785 25.7964 24.2712 25.9502 24.2713 26.103C24.2717 26.8761 24.2714 27.6492 24.2714 28.4425C25.4026 28.4425 26.4953 28.4425 27.633 28.4425C27.633 28.289 27.633 28.1514 27.6331 28.0137C27.6337 27.2377 27.6268 26.4615 27.638 25.6855C27.6434 25.3144 27.846 25.0924 28.1429 25.0825C28.4507 25.0722 28.6745 25.3063 28.6823 25.6872C28.6945 26.2866 28.6867 26.8864 28.687 27.4862C28.6872 27.7998 28.687 28.1133 28.687 28.4287C29.029 28.4287 29.3234 28.4287 29.6386 28.4287C29.6386 27.1373 29.6406 25.88 29.638 24.6227C29.6355 23.4715 28.925 22.7546 27.779 22.7505C26.5629 22.7462 25.3467 22.7466 24.1307 22.7505C22.9673 22.7541 22.2547 23.4683 22.248 24.6437C22.2413 25.8078 22.2461 26.9719 22.2472 28.136C22.2476 28.2283 22.2587 28.3204 22.267 28.4483ZM27.8834 19.7414C27.8888 18.685 27.025 17.805 25.9783 17.8005C24.8845 17.7957 24.0162 18.6618 24.0164 19.7575C24.0167 20.8028 24.8951 21.6841 25.9409 21.6886C27.0035 21.693 27.8778 20.8166 27.8834 19.7414Z" fill="#2C9A42"/>
<path fill-rule="evenodd" clip-rule="evenodd" d="M17.0676 23.4288C17.0676 23.7581 17.0731 24.0875 17.0663 24.4166C17.0545 24.9977 16.7627 25.3224 16.1869 25.3406C15.4975 25.3622 14.8065 25.3616 14.1171 25.3411C13.5567 25.3244 13.2546 25.0222 13.2363 24.4553C13.214 23.7622 13.2136 23.0672 13.2362 22.374C13.2554 21.7811 13.5811 21.4897 14.1841 21.4829C14.8273 21.4757 15.4707 21.4758 16.1138 21.4829C16.7472 21.4898 17.0586 21.8068 17.0668 22.4409C17.0712 22.7703 17.0676 23.0995 17.0676 23.4288ZM15.9853 24.2676C15.9853 23.6824 15.9853 23.1181 15.9853 22.5585C15.4121 22.5585 14.8682 22.5585 14.3159 22.5585C14.3159 23.1409 14.3159 23.7048 14.3159 24.2676C14.8929 24.2676 15.4363 24.2676 15.9853 24.2676Z" fill="#393737"/>
<path fill-rule="evenodd" clip-rule="evenodd" d="M3.521 23.3812C3.521 23.0519 3.5118 22.7221 3.52304 22.3932C3.54263 21.8195 3.85497 21.497 4.4227 21.4856C5.10082 21.472 5.77971 21.4726 6.45789 21.4853C7.02457 21.4961 7.34856 21.8146 7.3631 22.3881C7.38023 23.0697 7.37974 23.7527 7.36338 24.4345C7.34955 25.0093 7.03657 25.327 6.4633 25.3427C5.78539 25.3614 5.10608 25.3609 4.42818 25.343C3.83868 25.3272 3.53652 25.0008 3.52248 24.4044C3.51433 24.0636 3.52086 23.7222 3.521 23.3812ZM4.59748 22.5558C4.59748 23.1432 4.59748 23.6992 4.59748 24.2637C5.17406 24.2637 5.72697 24.2637 6.28838 24.2637C6.28838 23.6823 6.28838 23.1261 6.28838 22.5558C5.71925 22.5558 5.17392 22.5558 4.59748 22.5558Z" fill="#393737"/>
<path fill-rule="evenodd" clip-rule="evenodd" d="M10.3223 21.4821C10.6381 21.4821 10.9541 21.477 11.2698 21.4832C11.8825 21.4952 12.207 21.8088 12.2161 22.416C12.2262 23.0864 12.2271 23.7572 12.2156 24.4274C12.2059 24.9885 11.9103 25.3187 11.3587 25.3391C10.6579 25.365 9.95475 25.3628 9.25353 25.3405C8.69795 25.3229 8.39263 25.007 8.37732 24.4467C8.35871 23.7649 8.36047 23.082 8.37627 22.4002C8.38996 21.8088 8.71572 21.4983 9.30458 21.4838C9.64367 21.4753 9.98305 21.4821 10.3223 21.4821ZM9.45113 22.5547C9.45113 23.1446 9.45113 23.7007 9.45113 24.2636C10.0307 24.2636 10.5843 24.2636 11.1418 24.2636C11.1418 23.6815 11.1418 23.1246 11.1418 22.5547C10.5725 22.5547 10.0267 22.5547 9.45113 22.5547Z" fill="#393737"/>
<path fill-rule="evenodd" clip-rule="evenodd" d="M5.55204 10.942C5.89113 10.9424 6.23057 10.9326 6.56932 10.9447C7.10987 10.9638 7.42375 11.2591 7.4385 11.7998C7.45767 12.5048 7.45627 13.211 7.43927 13.9161C7.42621 14.4594 7.1138 14.7703 6.58055 14.7806C5.87926 14.7944 5.1772 14.7938 4.47577 14.7814C3.94076 14.772 3.62372 14.4728 3.60525 13.9271C3.58131 13.2224 3.58215 12.5158 3.6042 11.811C3.62182 11.2502 3.93922 10.9598 4.49965 10.9435C4.85019 10.9334 5.20122 10.9416 5.55204 10.942ZM4.66522 13.7058C5.24953 13.7058 5.80286 13.7058 6.36469 13.7058C6.36469 13.1303 6.36469 12.5756 6.36469 12.0289C5.78475 12.0289 5.23148 12.0289 4.66522 12.0289C4.66522 12.5932 4.66522 13.129 4.66522 13.7058Z" fill="#393737"/>
<path fill-rule="evenodd" clip-rule="evenodd" d="M10.2824 14.7834C9.95499 14.7838 9.62748 14.7893 9.30019 14.7825C8.71911 14.7706 8.39519 14.4794 8.37792 13.9055C8.35706 13.2124 8.35818 12.5178 8.37742 11.8245C8.39315 11.2604 8.70584 10.9541 9.25883 10.9434C9.94846 10.9301 10.6387 10.9306 11.3285 10.9431C11.8883 10.9534 12.2003 11.2573 12.2138 11.8182C12.2307 12.5116 12.2293 13.2059 12.2143 13.8992C12.2022 14.4607 11.8893 14.7648 11.3349 14.7812C10.9843 14.7915 10.6332 14.7831 10.2824 14.7834ZM11.1482 12.0294C10.5542 12.0294 10.0015 12.0294 9.44947 12.0294C9.44947 12.6057 9.44947 13.1508 9.44947 13.7021C10.0273 13.7021 10.5806 13.7021 11.1482 13.7021C11.1482 13.1337 11.1482 12.5882 11.1482 12.0294Z" fill="#393737"/>
<path fill-rule="evenodd" clip-rule="evenodd" d="M15.1333 14.7839C14.7941 14.7842 14.4548 14.7915 14.116 14.7825C13.5719 14.7681 13.2474 14.4881 13.2269 13.9475C13.1993 13.2197 13.198 12.489 13.2287 11.7613C13.2508 11.2367 13.5709 10.9544 14.097 10.9445C14.7983 10.9314 15.5004 10.9307 16.2017 10.9457C16.7238 10.9569 17.0387 11.2552 17.0552 11.7774C17.0778 12.4939 17.0762 13.2122 17.0571 13.9288C17.0428 14.4672 16.7233 14.765 16.1856 14.7815C15.8352 14.7924 15.4841 14.7836 15.1333 14.7839ZM14.2834 13.7025C14.8725 13.7025 15.4259 13.7025 15.9805 13.7025C15.9805 13.1254 15.9805 12.5717 15.9805 12.0303C15.3983 12.0303 14.8456 12.0303 14.2834 12.0303C14.2834 12.5972 14.2834 13.133 14.2834 13.7025Z" fill="#393737"/>
<path fill-rule="evenodd" clip-rule="evenodd" d="M21.919 12.926C21.919 13.2553 21.9247 13.5846 21.9177 13.9138C21.9059 14.4791 21.6173 14.8107 21.068 14.8279C20.3555 14.8504 19.641 14.8509 18.9284 14.8262C18.4056 14.8082 18.1124 14.5015 18.0971 13.9715C18.0768 13.2666 18.0772 12.5602 18.0949 11.8552C18.109 11.2923 18.413 10.9881 18.9758 10.9732C19.6652 10.9549 20.356 10.9533 21.0454 10.9741C21.6151 10.9912 21.9074 11.3201 21.918 11.903C21.9241 12.2439 21.9191 12.585 21.919 12.926ZM19.1581 13.7555C19.745 13.7555 20.2876 13.7555 20.845 13.7555C20.845 13.1785 20.845 12.622 20.845 12.0548C20.2743 12.0548 19.7232 12.0548 19.1581 12.0548C19.1581 12.6309 19.1581 13.1792 19.1581 13.7555Z" fill="#393737"/>
<path fill-rule="evenodd" clip-rule="evenodd" d="M5.42178 20.0792C5.08269 20.0789 4.74331 20.0871 4.40457 20.0771C3.8631 20.0609 3.54388 19.7698 3.52766 19.2298C3.50618 18.5133 3.50547 17.795 3.52858 17.0786C3.54592 16.5399 3.86458 16.2486 4.41166 16.2389C5.1013 16.2267 5.79156 16.2259 6.48119 16.2392C7.0341 16.2498 7.347 16.5567 7.36245 17.1207C7.38148 17.8138 7.38268 18.5085 7.36196 19.2016C7.34483 19.775 7.02062 20.0667 6.43913 20.0783C6.10011 20.0851 5.76087 20.0796 5.42178 20.0792ZM4.5929 18.9882C5.1725 18.9882 5.73265 18.9882 6.28675 18.9882C6.28675 18.4103 6.28675 17.8655 6.28675 17.3205C5.70772 17.3205 5.1548 17.3205 4.5929 17.3205C4.5929 17.8917 4.5929 18.4367 4.5929 18.9882Z" fill="#393737"/>
<path fill-rule="evenodd" clip-rule="evenodd" d="M26.7712 12.9025C26.7712 13.2436 26.7783 13.5848 26.7695 13.9256C26.755 14.4916 26.4661 14.8131 25.9119 14.8296C25.2108 14.8504 24.5082 14.8504 23.8071 14.8296C23.2539 14.8132 22.9583 14.4912 22.9491 13.9261C22.9381 13.2442 22.938 12.5618 22.9491 11.88C22.9587 11.3026 23.2635 10.9877 23.8416 10.9735C24.5195 10.9567 25.1984 10.9569 25.8764 10.9733C26.4554 10.9874 26.7544 11.3024 26.7695 11.8795C26.7784 12.2203 26.7712 12.5615 26.7712 12.9025ZM25.7034 12.0502C25.1186 12.0502 24.5764 12.0502 24.0213 12.0502C24.0213 12.6286 24.0213 13.1847 24.0213 13.749C24.5948 13.749 25.1459 13.749 25.7034 13.749C25.7034 13.1731 25.7034 12.6246 25.7034 12.0502Z" fill="#393737"/>
<path fill-rule="evenodd" clip-rule="evenodd" d="M19.9916 20.0759C19.6294 20.0759 19.2666 20.089 18.9051 20.0726C18.4315 20.0512 18.1252 19.779 18.1082 19.3065C18.081 18.5441 18.0808 17.7794 18.1068 17.017C18.1231 16.5411 18.4241 16.2571 18.8966 16.2451C19.6322 16.2261 20.3689 16.2254 21.1044 16.2441C21.603 16.2567 21.9033 16.5717 21.9138 17.0783C21.9287 17.7947 21.9284 18.5119 21.9146 19.2283C21.9045 19.75 21.5955 20.0477 21.0781 20.078C21.0548 20.0792 21.0314 20.0792 21.0081 20.0792C20.6692 20.0794 20.3303 20.0792 19.9914 20.0792C19.9916 20.0782 19.9916 20.077 19.9916 20.0759ZM19.1568 18.9948C19.7378 18.9948 20.289 18.9948 20.845 18.9948C20.845 18.423 20.845 17.8771 20.845 17.3206C20.2739 17.3206 19.7225 17.3206 19.1568 17.3206C19.1568 17.884 19.1568 18.4211 19.1568 18.9948Z" fill="#393737"/>
<path fill-rule="evenodd" clip-rule="evenodd" d="M9.90601 18.2001C10.2582 17.8368 10.5628 17.514 10.8771 17.2009C11.1699 16.9093 11.4766 16.8783 11.7062 17.1018C11.9431 17.3326 11.9225 17.638 11.6335 17.9349C11.2093 18.3706 10.7814 18.8028 10.3464 19.2273C10.0482 19.5181 9.78158 19.5234 9.48701 19.2474C9.23119 19.0078 8.98359 18.7585 8.74492 18.5017C8.50603 18.2445 8.49725 17.9238 8.70384 17.7149C8.91499 17.5013 9.2234 17.5113 9.48413 17.7531C9.62007 17.8793 9.74001 18.0228 9.90601 18.2001Z" fill="#2C9A42"/>
<path fill-rule="evenodd" clip-rule="evenodd" d="M14.7425 18.1984C15.1072 17.8255 15.4136 17.5039 15.7294 17.1918C16.0215 16.9031 16.3307 16.8775 16.5583 17.1085C16.7894 17.3429 16.7631 17.6422 16.4707 17.9416C16.0542 18.3684 15.6343 18.7919 15.2085 19.2094C14.8813 19.5301 14.6277 19.5296 14.2989 19.2138C14.0544 18.9793 13.812 18.7414 13.5827 18.4918C13.3463 18.2346 13.3438 17.9114 13.5562 17.7059C13.772 17.4971 14.0747 17.5127 14.3366 17.7594C14.4711 17.886 14.5888 18.0307 14.7425 18.1984Z" fill="#2C9A42"/>
</g>
<defs>
<clipPath id="clip0_370_1707">
<rect width="30.0781" height="28.875" fill="white" transform="translate(0.637451 0.650391)"/>
</clipPath>
</defs>
</svg>
