<svg width="726" height="726" viewBox="0 0 726 726" fill="none" xmlns="http://www.w3.org/2000/svg">
<g id="Wallet is Empty">
<path id="Fill 1" fill-rule="evenodd" clip-rule="evenodd" d="M489.582 696.697C489.582 701.845 428.481 706.019 353.107 706.019C277.732 706.019 216.627 701.845 216.627 696.697C216.627 691.552 277.732 687.378 353.107 687.378C428.481 687.378 489.582 691.552 489.582 696.697Z" fill="#DCDCE2"/>
<path id="Stroke 3" d="M335.866 97.8633C261.415 104.696 234.051 173.016 256.468 212.841C272.285 240.939 299.089 278.913 349.052 269.804C399.013 260.693 403.223 210.565 376.91 203.746C350.598 196.93 256.859 228.731 267.453 302.197C275.1 355.205 341.385 370.485 341.385 370.485" stroke="#DCDCE2" stroke-width="2" stroke-dasharray="7"/>
<path id="Fill 5" fill-rule="evenodd" clip-rule="evenodd" d="M378.897 55.9223C378.897 55.9223 389.565 25.7093 390.69 13.9561C391.282 7.81473 381.894 -9.28429 370.908 6.5323C359.921 22.3489 364.933 41.742 378.897 55.9223Z" fill="#DCDCE2"/>
<path id="Fill 7" fill-rule="evenodd" clip-rule="evenodd" d="M341.041 23.0181C328.543 18.436 322.886 22.0086 320.475 29.1394C318.063 36.2726 321.43 49.8501 340.28 52.9452C359.132 56.0403 377.821 55.9216 377.821 55.9216C377.821 55.9216 353.539 27.6002 341.041 23.0181Z" fill="#DCDCE2"/>
<path id="Fill 9" fill-rule="evenodd" clip-rule="evenodd" d="M376.781 61.9074C377.065 60.6444 377.44 59.434 377.858 58.251C375.551 58.6461 373.203 59.201 370.84 59.9524C368.277 60.7655 365.884 61.832 363.635 63.0538C362.658 65.0545 361.867 67.1921 361.353 69.4874C358.186 83.6174 365.663 97.8593 378.225 102.523C379.585 102.23 380.952 101.892 382.321 101.459C386.147 100.244 389.676 98.6358 392.866 96.7722C380.598 90.937 373.538 76.3754 376.781 61.9074Z" fill="#DCDCE2"/>
<path id="Fill 11" fill-rule="evenodd" clip-rule="evenodd" d="M358.846 69.2791C359.146 67.8832 359.554 66.5484 360.005 65.2441C349.137 72.7924 343.051 84.5071 344.054 91.3386C337.11 94.5746 332.687 97.3006 332.687 97.3006C332.687 97.3006 337.926 96.8682 345.562 95.2772C349.651 101.756 360.987 106.094 373.522 104.539C362.167 98.1724 355.758 83.6846 358.846 69.2791Z" fill="#DCDCE2"/>
<path id="Fill 13" fill-rule="evenodd" clip-rule="evenodd" d="M394.498 74.727C391.812 74.0255 390.147 71.0888 390.793 68.1476C391.438 65.2266 394.153 63.4164 396.837 64.118C399.536 64.8241 401.185 67.772 400.542 70.6952C399.893 73.6342 397.199 75.4309 394.498 74.727ZM381.948 58.5492C381.413 59.8974 380.958 61.3195 380.634 62.7925C377.785 75.7065 384.365 88.6967 395.526 93.2024C404.839 86.8936 410.068 77.9604 407.947 70.204C405.588 61.5037 394.742 57.0106 381.948 58.5492Z" fill="#DCDCE2"/>
<path id="Fill 15" fill-rule="evenodd" clip-rule="evenodd" d="M224.696 603.496H492.339C499.124 603.496 504.627 597.515 504.627 590.141V395.522C504.627 388.129 499.111 382.137 492.311 382.137H218.202C214.957 382.137 212.328 384.994 212.328 388.52V590.054C212.328 597.478 217.864 603.496 224.696 603.496Z" fill="#F1F2F7"/>
<path id="Fill 17" fill-rule="evenodd" clip-rule="evenodd" d="M224.532 601.166H257.01C257.259 601.166 257.463 600.946 257.463 600.674V354.668C257.463 354.396 257.259 354.176 257.01 354.176H224.532C217.79 354.176 212.328 360.08 212.328 367.367V587.975C212.328 595.26 217.79 601.166 224.532 601.166Z" fill="#BEC0D6"/>
<path id="Fill 19" fill-rule="evenodd" clip-rule="evenodd" d="M437.33 519.613H521.369C521.617 519.613 521.821 519.39 521.821 519.115V464.188C521.821 463.914 521.617 463.69 521.369 463.69H437.33C430.579 463.69 425.104 469.698 425.104 477.106V506.198C425.104 513.607 430.579 519.613 437.33 519.613Z" fill="#2C9A42"/>
<path id="Fill 21" fill-rule="evenodd" clip-rule="evenodd" d="M455.826 354.176H224.826V354.209C217.901 354.39 212.328 360.549 212.328 368.158C212.328 375.766 217.901 381.925 224.826 382.106V382.137H469.783C470.034 382.137 470.239 381.916 470.239 381.641V369.918C470.239 361.223 463.785 354.176 455.826 354.176Z" fill="#D8DBEA"/>
<path id="Fill 23" fill-rule="evenodd" clip-rule="evenodd" d="M465.94 491.65C465.94 498.085 461.129 503.301 455.194 503.301C449.258 503.301 444.448 498.085 444.448 491.65C444.448 485.215 449.258 480 455.194 480C461.129 480 465.94 485.215 465.94 491.65Z" fill="#FEFEFF"/>
<path id="Stroke 25" d="M25.3433 433.397V440.388" stroke="#D2D8DF" stroke-width="2.921" stroke-linecap="round"/>
<path id="Stroke 27" d="M12.4475 440.388L16.746 445.048" stroke="#D2D8DF" stroke-width="2.921" stroke-linecap="round"/>
<path id="Stroke 29" d="M6 454.368H12.4478" stroke="#D2D8DF" stroke-width="2.921" stroke-linecap="round"/>
<path id="Stroke 31" d="M12.4475 468.351L16.746 463.69" stroke="#D2D8DF" stroke-width="2.921" stroke-linecap="round"/>
<path id="Stroke 33" d="M25.3433 475.339V468.349" stroke="#D2D8DF" stroke-width="2.921" stroke-linecap="round"/>
<path id="Stroke 35" d="M38.2389 468.351L33.9404 463.69" stroke="#D2D8DF" stroke-width="2.921" stroke-linecap="round"/>
<path id="Stroke 37" d="M44.6868 454.368H38.239" stroke="#D2D8DF" stroke-width="2.921" stroke-linecap="round"/>
<path id="Stroke 39" d="M38.2389 440.388L33.9404 445.048" stroke="#D2D8DF" stroke-width="2.921" stroke-linecap="round"/>
<path id="Stroke 41" d="M356.328 146.795V151.455" stroke="#D2D8DF" stroke-width="2.921" stroke-linecap="round"/>
<path id="Stroke 43" d="M345.582 158.446H349.881" stroke="#D2D8DF" stroke-width="2.921" stroke-linecap="round"/>
<path id="Stroke 45" d="M356.328 172.426V167.766" stroke="#D2D8DF" stroke-width="2.921" stroke-linecap="round"/>
<path id="Stroke 47" d="M369.224 160.775H364.926" stroke="#D2D8DF" stroke-width="2.921" stroke-linecap="round"/>
<path id="Stroke 49" d="M119.911 330.873V337.863" stroke="#D2D8DF" stroke-width="2.921" stroke-linecap="round"/>
<path id="Stroke 51" d="M100.567 351.844H107.015" stroke="#D2D8DF" stroke-width="2.921" stroke-linecap="round"/>
<path id="Stroke 53" d="M117.761 370.485V363.495" stroke="#D2D8DF" stroke-width="2.921" stroke-linecap="round"/>
<path id="Stroke 55" d="M137.104 351.844H130.657" stroke="#D2D8DF" stroke-width="2.921" stroke-linecap="round"/>
<path id="Stroke 57" d="M558.358 575.534C563.105 575.534 566.955 579.707 566.955 584.856C566.955 590.002 563.105 594.175 558.358 594.175C553.611 594.175 549.761 590.002 549.761 584.856" stroke="#D2D8DF" stroke-width="2.921" stroke-linecap="round"/>
<path id="Stroke 59" d="M599.051 702.619C600.147 710.94 594.842 718.653 587.205 719.845C579.571 721.038 572.491 715.259 571.397 706.939C570.303 698.615 575.605 690.903 583.243 689.71" stroke="#D2D8DF" stroke-width="2.921" stroke-linecap="round"/>
<path id="Fill 61" fill-rule="evenodd" clip-rule="evenodd" d="M599.194 486.99C604.405 485.203 612.391 478.208 614.24 470.681C615.915 477.335 622.942 485.203 629.284 485.801C622.147 488.578 615.322 496.825 614.24 503.302C613.502 496.699 604.065 487.952 599.194 486.99Z" fill="#EBECEF"/>
<path id="Fill 63" fill-rule="evenodd" clip-rule="evenodd" d="M59.7312 572.037C62.3375 571.145 66.3299 567.646 67.2547 563.883C68.0922 567.209 71.6042 571.145 74.776 571.444C71.2066 572.831 67.7946 576.954 67.2547 580.193C66.8848 576.893 62.1674 572.518 59.7312 572.037Z" fill="#EBECEF"/>
<path id="Fill 65" fill-rule="evenodd" clip-rule="evenodd" d="M107.015 263.3C107.015 267.162 104.127 270.29 100.567 270.29C97.0045 270.29 94.1191 267.162 94.1191 263.3C94.1191 259.438 97.0045 256.31 100.567 256.31C104.127 256.31 107.015 259.438 107.015 263.3Z" fill="#D1D9E0"/>
<path id="Fill 69" fill-rule="evenodd" clip-rule="evenodd" d="M726 249.319C726 254.469 722.152 258.641 717.404 258.641C712.654 258.641 708.806 254.469 708.806 249.319C708.806 244.172 712.654 240 717.404 240C722.152 240 726 244.172 726 249.319Z" fill="#EBECEF"/>
<path id="Stroke 73" fill-rule="evenodd" clip-rule="evenodd" d="M231.671 214.368C231.671 218.23 228.784 221.359 225.224 221.359C221.661 221.359 218.776 218.23 218.776 214.368C218.776 210.506 221.661 207.378 225.224 207.378C228.784 207.378 231.671 210.506 231.671 214.368Z" stroke="#D2D8DF" stroke-width="2.921" stroke-linecap="round"/>
<path id="Stroke 75" fill-rule="evenodd" clip-rule="evenodd" d="M131.564 656.476C127.127 658.305 122.163 655.89 120.476 651.08C118.786 646.27 121.016 640.889 125.452 639.059C129.889 637.227 134.853 639.644 136.541 644.454C138.228 649.264 136 654.646 131.564 656.476Z" stroke="#D2D8DF" stroke-width="2.921" stroke-linecap="round"/>
</g>
</svg>
